<svg width="92" height="48" viewBox="0 0 92 48" fill="none" xmlns="http://www.w3.org/2000/svg">
<path d="M13.3694 44.0013C5.17285 46.1952 1.04156 47.5562 0.000488281 47.9625C3.84739 46.6681 21.3298 45.7528 21.3298 45.829C33.0609 44.3435 69.9683 45.7909 76.0624 46.1718C82.385 46.0956 91.3738 48 91.3357 48C86.7042 46.2022 79.7823 44.6102 76.9003 44.0388V36.0784L72.444 32.727C70.7682 31.4324 69.562 31.7875 68.9399 32.1557L54.9616 38.897L54.8854 41.8297H52.6001V38.897C48.6009 37.2465 40.3358 33.9836 37.7839 32.8029C34.2417 31.164 33.099 32.003 31.9564 32.7648L26.8907 36.3451V42.4011L24.5673 42.5535V36.1552C22.574 35.4569 18.3818 34.068 17.5591 34.0984C16.7364 34.1289 14.4232 35.5585 13.3694 36.2694C13.3567 38.834 13.3389 43.9709 13.3694 44.0013Z" fill="#5FC6F1"/>
<path d="M13.3694 27.7753V34.0984C14.4232 33.3873 16.7364 31.965 17.5591 31.965C18.3818 31.965 22.574 33.3361 24.5673 34.0217V27.6229C22.574 26.9754 18.3589 25.6804 17.4448 25.6804C16.5307 25.6804 14.347 27.077 13.3694 27.7753Z" fill="#5FC6F1"/>
<path d="M13.3694 19.2055V25.5662C14.3343 24.8933 16.5002 23.5475 17.4448 23.5475C18.3894 23.5475 22.5867 24.8425 24.5673 25.49V19.0531C22.5232 18.4183 18.2371 17.1411 17.4448 17.1106C16.6526 17.0802 14.3978 18.4945 13.3694 19.2055Z" fill="#5FC6F1"/>
<path d="M13.3694 11.9306V17.1106C14.3978 16.3996 16.6526 14.9624 17.4448 14.9015C18.2371 14.8405 22.5232 16.2473 24.5673 16.9582V11.7783C22.4344 11.1181 18.0238 9.79767 17.4448 9.79767C16.8659 9.79767 14.4867 11.2196 13.3694 11.9306Z" fill="#5FC6F1"/>
<path d="M26.8907 27.9657V34.0217C28.9093 32.9933 32.18 29.6035 34.5464 29.6035C36.7555 29.6035 45.8966 34.2883 52.6001 36.6498V30.5176C46.7727 28.8036 36.8317 23.5094 34.5464 23.5094C32.4896 23.5094 29.1379 26.7088 26.8907 27.9657Z" fill="#5FC6F1"/>
<path d="M26.8907 19.3959V25.8708C27.8175 25.2487 30.1282 23.6541 31.9564 22.2525C33.7846 20.8508 35.1177 21.3383 36.2223 21.6812L52.6001 28.4227V21.9859C48.5501 20.31 39.7645 16.8439 36.8698 15.5871C34.3559 14.3301 32.642 15.3585 32.1087 15.8156L26.8907 19.3959Z" fill="#5FC6F1"/>
<path d="M26.8907 11.664V17.1868C28.4523 16.0949 31.4612 14.0254 31.4612 14.0254C34.0893 11.8544 36.1461 12.9589 37.3649 13.5684L52.6001 19.7767V14.254C48.2454 12.4511 39.1017 8.6855 37.3649 8.04562C34.3179 6.56013 32.8705 7.55042 31.804 8.31224L26.8907 11.664Z" fill="#5FC6F1"/>
<path d="M26.8907 4.42724V9.41678C28.0333 8.71848 30.6117 6.90207 32.1849 5.72219C33.7084 4.57955 35.7525 5.03661 36.6031 5.49366L52.6001 12.121V6.9791C48.7405 5.37941 40.0996 1.76143 37.1745 0.694959C34.4321 -0.676026 32.8324 0.313814 32.1849 0.846959L26.8907 4.42724Z" fill="#5FC6F1"/>
<path d="M54.8854 30.5176L54.9616 36.6498C59.3925 34.5423 68.3991 30.137 68.521 30.137C70.0064 29.3372 71.1617 29.5911 71.8346 30.099L76.9003 33.9078V27.8137C76.2528 27.2804 74.4627 25.8331 72.5583 24.5C70.5396 22.9765 69.0923 23.8525 68.5971 24.043L54.8854 30.5176Z" fill="#5FC6F1"/>
<path d="M54.8854 22.329V28.4227C59.2782 26.2771 68.2163 21.9859 68.2163 21.9859C70.0064 20.9959 71.3395 21.4149 71.987 21.91L76.9003 25.6046V19.5486C75.91 18.7995 72.2917 16.1587 72.2917 16.1587C70.6539 14.7495 68.978 15.5493 68.4448 15.8921L54.8854 22.329Z" fill="#5FC6F1"/>
<path d="M54.8854 14.254V20.1199C59.329 17.9869 68.3305 13.7211 68.3305 13.7211C70.0064 12.5937 71.4918 13.2513 71.987 13.7211L76.9003 17.3395V11.4358C75.4276 10.3566 72.3679 8.12214 72.3679 8.12214C70.7529 6.62908 69.0161 7.43655 68.2163 7.89361L54.8854 14.254Z" fill="#5FC6F1"/>
<path fill-rule="evenodd" clip-rule="evenodd" d="M30.831 14.4568C32.992 12.3194 35.408 10.2596 38.1029 8.33658C40.9036 9.4354 48.6792 12.6385 52.5908 14.2579V19.7806L37.3556 13.5723L37.2791 13.534C36.0516 12.9186 34.0258 11.9031 31.4519 14.0293C31.4519 14.0293 31.2114 14.1948 30.831 14.4568ZM45.449 4.02065C47.2578 4.76694 49.0605 5.51627 50.5749 6.14574L50.5754 6.14595C51.3306 6.45987 52.0141 6.74397 52.5908 6.98301V12.1249L40.1196 6.95824C41.6987 5.925 43.3664 4.93875 45.1267 4.00977C45.1307 4.01381 45.2417 4.01742 45.449 4.02065ZM26.8813 34.0256V27.9696C27.6347 27.5483 28.5121 26.9086 29.4232 26.2444C31.2302 24.9272 33.1698 23.5133 34.5371 23.5133C35.728 23.5133 38.9982 24.9512 42.6819 26.5708L42.6819 26.5709C46.0666 28.0591 49.8003 29.7008 52.5908 30.5215V36.6537C49.7091 35.6385 46.377 34.194 43.3387 32.8769L43.3386 32.8769L43.3386 32.8769L43.3385 32.8768C39.3091 31.1301 35.7965 29.6074 34.5371 29.6074C32.9844 29.6074 31.0425 31.0666 29.3204 32.3608L29.3204 32.3608L29.3204 32.3608C28.4178 33.0391 27.5755 33.672 26.8813 34.0256ZM26.8813 19.3998V25.8748C27.8082 25.2526 30.1188 23.658 31.9471 22.2564C33.7121 20.9032 35.0157 21.3108 36.0976 21.6491L36.2129 21.6851L52.5908 28.4267V21.9898C50.9033 21.2915 48.3936 20.2824 45.8305 19.2518L45.8294 19.2514L45.8293 19.2513L45.8292 19.2513C42.2412 17.8087 38.5488 16.324 36.8604 15.591C34.3466 14.334 32.6326 15.3624 32.0994 15.8195L26.8813 19.3998ZM54.9523 36.6537L54.8761 30.5215L68.5878 24.0469C68.6338 24.0292 68.6879 24.0056 68.75 23.9786C69.3566 23.7145 70.7177 23.1218 72.549 24.5039C74.4534 25.837 76.2435 27.2843 76.891 27.8176V33.9117L71.8253 30.1029C71.1524 29.595 69.9971 29.3411 68.5116 30.141C68.4436 30.141 65.6062 31.5141 62.3419 33.0938L62.3411 33.0942L62.3404 33.0945L62.3398 33.0948L62.3395 33.0949L62.3394 33.095L62.3362 33.0966L62.3361 33.0966L62.3329 33.0982C59.7526 34.3469 56.9071 35.7239 54.9523 36.6537ZM54.8761 22.3329V28.4267C59.2689 26.281 68.2069 21.9898 68.2069 21.9898C69.9971 20.9998 71.3301 21.4188 71.9776 21.9139L76.891 25.6085V19.5525C75.9007 18.8034 72.2823 16.1626 72.2823 16.1626C70.6446 14.7534 68.9687 15.5532 68.4354 15.896L54.8761 22.3329ZM54.8761 20.1238V14.2579L68.2069 7.89751C69.0068 7.44046 70.7436 6.63299 72.3585 8.12604C72.3585 8.12604 75.4183 10.3605 76.891 11.4397V17.3434L71.9776 13.725C71.4825 13.2552 69.9971 12.5976 68.3212 13.725C68.3212 13.725 59.3197 17.9909 54.8761 20.1238Z" fill="#01B6ED"/>
<path fill-rule="evenodd" clip-rule="evenodd" d="M52.6006 36.3418C52.5271 36.4185 52.454 36.4952 52.3813 36.572C52.4547 36.5982 52.5278 36.6241 52.6006 36.6497V36.3418ZM74.8078 24.0307C75.4967 23.9381 76.1945 23.8691 76.9008 23.8256V25.6045L74.8078 24.0307ZM54.9299 34.0598C59.5799 29.7873 65.5344 25.9414 72.477 24.4393C72.5041 24.4591 72.5314 24.4793 72.5588 24.5C74.4632 25.8331 76.2533 27.2804 76.9008 27.8136V33.9077L71.8351 30.0989C71.1622 29.5911 70.0069 29.3372 68.5214 30.137C68.4534 30.137 65.6155 31.5104 62.3507 33.0903L62.3504 33.0905L62.3497 33.0908L62.3494 33.091L62.3494 33.091C59.7674 34.3405 56.9186 35.7192 54.9621 36.6497L54.9299 34.0598Z" fill="#01A0E2"/>
</svg>
